<?xml version="1.0" encoding="UTF-8" standalone="no"?>
<!-- Created with Inkscape (http://www.inkscape.org/) -->

<svg
   xmlns:dc="http://purl.org/dc/elements/1.1/"
   xmlns:cc="http://creativecommons.org/ns#"
   xmlns:rdf="http://www.w3.org/1999/02/22-rdf-syntax-ns#"
   xmlns:svg="http://www.w3.org/2000/svg"
   xmlns="http://www.w3.org/2000/svg"
   xmlns:xlink="http://www.w3.org/1999/xlink"
   xmlns:sodipodi="http://sodipodi.sourceforge.net/DTD/sodipodi-0.dtd"
   xmlns:inkscape="http://www.inkscape.org/namespaces/inkscape"
   width="210mm"
   height="297mm"
   viewBox="0 0 744.09448819 1052.3622047"
   id="svg2"
   version="1.1"
   inkscape:version="0.91 r13725"
   sodipodi:docname="logo.svg"
   inkscape:export-filename="C:\Users\Waldeilson\Desktop\g6214.ico"
   inkscape:export-xdpi="2.25"
   inkscape:export-ydpi="2.25">
  <defs
     id="defs4">
    <linearGradient
       inkscape:collect="always"
       id="linearGradient6184">
      <stop
         style="stop-color:#ffffff;stop-opacity:1;"
         offset="0"
         id="stop6186" />
      <stop
         style="stop-color:#ffffff;stop-opacity:0"
         offset="1"
         id="stop6188" />
    </linearGradient>
    <linearGradient
       inkscape:collect="always"
       id="linearGradient6157">
      <stop
         style="stop-color:#ff9900;stop-opacity:1"
         offset="0"
         id="stop6159" />
      <stop
         id="stop6167"
         offset="0.58124852"
         style="stop-color:#ff6600;stop-opacity:0.99" />
      <stop
         style="stop-color:#000000;stop-opacity:1"
         offset="1"
         id="stop6161" />
    </linearGradient>
    <radialGradient
       inkscape:collect="always"
       xlink:href="#linearGradient6157"
       id="radialGradient6163"
       cx="318.45963"
       cy="530.59454"
       fx="318.45963"
       fy="530.59454"
       r="184.69168"
       gradientTransform="matrix(-3.0927202,2.3518672,-1.9734811,-3.6824669,2509.6631,1355.0009)"
       gradientUnits="userSpaceOnUse" />
    <radialGradient
       inkscape:collect="always"
       xlink:href="#linearGradient6184"
       id="radialGradient6190"
       cx="372.85715"
       cy="386.63177"
       fx="372.85715"
       fy="386.63177"
       r="159.07142"
       gradientTransform="matrix(1.0260643,-0.02559417,0.01462844,0.83217146,74.56836,-118.74032)"
       gradientUnits="userSpaceOnUse" />
  </defs>
  <sodipodi:namedview
     id="base"
     pagecolor="#ffffff"
     bordercolor="#666666"
     borderopacity="1.0"
     inkscape:pageopacity="0.0"
     inkscape:pageshadow="2"
     inkscape:zoom="0.7"
     inkscape:cx="429.43723"
     inkscape:cy="647.36946"
     inkscape:document-units="px"
     inkscape:current-layer="layer4"
     showgrid="false"
     inkscape:window-width="1280"
     inkscape:window-height="662"
     inkscape:window-x="-8"
     inkscape:window-y="-8"
     inkscape:window-maximized="1"
     showguides="false" />
  <metadata
     id="metadata7">
    <rdf:RDF>
      <cc:Work
         rdf:about="">
        <dc:format>image/svg+xml</dc:format>
        <dc:type
           rdf:resource="http://purl.org/dc/dcmitype/StillImage" />
        <dc:title></dc:title>
      </cc:Work>
    </rdf:RDF>
  </metadata>
  <g
     inkscape:groupmode="layer"
     id="layer5"
     inkscape:label="Layer 4"
     style="display:inline">
    <path
       style="display:inline;opacity:0.98999999;fill:#002671;fill-opacity:1;stroke:#000000;stroke-width:0;stroke-miterlimit:4;stroke-dasharray:none;stroke-opacity:1"
       d="m 81.14286,92.362198 c 113.80951,0 227.61902,0 341.42853,0 0,212.857182 0,425.714352 0,638.571532 -113.80951,0 -227.61902,0 -341.42853,0 0,-212.85718 0,-425.71435 0,-638.571532 z"
       id="rect6202"
       inkscape:connector-curvature="0" />
  </g>
  <g
     inkscape:groupmode="layer"
     id="layer3"
     inkscape:label="Layer 2"
     style="display:inline" />
  <g
     inkscape:label="Layer 1"
     inkscape:groupmode="layer"
     id="layer1"
     style="display:inline" />
  <g
     inkscape:groupmode="layer"
     id="layer4"
     inkscape:label="Layer 3"
     style="display:inline">
    <g
       id="g6235">
      <g
         inkscape:export-ydpi="107.44"
         inkscape:export-xdpi="107.44"
         id="g6214">
        <g
           id="g6206"
           transform="matrix(1.3092039,0,0,1.5595444,-25.346442,-409.50876)">
          <path
             d="M 81.973232,321.48478 246.5997,731.86104 570.81993,731.39919 567.93151,323.0087 Z"
             style="font-style:normal;font-variant:normal;font-weight:bold;font-stretch:semi-condensed;font-size:180px;line-height:125%;font-family:'Lucida Console';-inkscape-font-specification:'Lucida Console Semi-Condensed';letter-spacing:0px;word-spacing:0px;display:inline;fill:#003399;fill-opacity:1;stroke:none;stroke-width:1px;stroke-linecap:butt;stroke-linejoin:miter;stroke-opacity:1"
             id="path3341-9"
             inkscape:connector-curvature="0"
             sodipodi:nodetypes="ccccc" />
        </g>
        <path
           sodipodi:nodetypes="scccsccccscssscsccccc"
           inkscape:connector-curvature="0"
           id="path3341"
           style="font-style:normal;font-variant:normal;font-weight:bold;font-stretch:semi-condensed;font-size:180px;line-height:125%;font-family:'Lucida Console';-inkscape-font-specification:'Lucida Console Semi-Condensed';letter-spacing:0px;word-spacing:0px;display:inline;fill:#000000;fill-opacity:1;stroke:none;stroke-width:1px;stroke-linecap:butt;stroke-linejoin:miter;stroke-opacity:1"
           d="m 221.84331,421.0166 0,-54.17457 336.55214,0 c -3.27762,-44.61434 -15.49423,-78.07511 -36.64976,-100.3823 -20.85762,-22.30721 -50.05827,-33.46078 -87.60193,-33.46078 -30.09452,0 -61.08295,6.01938 -92.96526,18.05819 -31.88232,11.68474 -64.50953,29.56593 -97.88167,53.64349 l 0,-146.59002 c 33.96809,-16.99594 67.93614,-29.74292 101.90423,-38.2409 34.26603,-8.8521 68.38307,-13.27811 102.35116,-13.27811 81.64259,0 144.96027,27.4414 189.95309,82.32413 45.29077,54.52868 67.93614,131.18749 67.93614,229.97638 0,97.01854 -22.19842,173.32324 -66.5953,228.91415 -44.39688,55.59091 -105.47984,83.38636 -183.24887,83.38636 -70.91579,0 -127.67824,-28.14951 -170.28734,-84.44861 -42.3111,-56.29909 -63.46663,-131.54154 -63.46663,-225.72741 z m 48.7527,36.42225 90.92127,212.09018 197.29497,-0.23869 -1.75769,-211.0639 z" />
        <path
           sodipodi:nodetypes="scccsccccscssscsccccc"
           inkscape:connector-curvature="0"
           id="path3341-7"
           style="font-style:normal;font-variant:normal;font-weight:bold;font-stretch:semi-condensed;font-size:180px;line-height:125%;font-family:'Lucida Console';-inkscape-font-specification:'Lucida Console Semi-Condensed';letter-spacing:0px;word-spacing:0px;display:inline;fill:url(#radialGradient6163);fill-opacity:1;stroke:none;stroke-width:1px;stroke-linecap:butt;stroke-linejoin:miter;stroke-opacity:1"
           d="m 234.97751,407.27838 0,-54.17456 336.55213,0 c -3.27761,-44.61434 -15.49423,-78.07511 -36.64976,-100.38231 -20.85762,-22.3072 -50.05826,-33.46077 -87.60192,-33.46077 -30.09453,0 -61.08295,6.01937 -92.96526,18.05818 -31.88232,11.68475 -64.50953,29.56594 -97.88167,53.6435 l 0,-146.59002 c 33.96809,-16.99595 67.93613,-29.74293 101.90422,-38.2409 34.26603,-8.8521 68.38308,-13.278118 102.35117,-13.278118 81.64258,0 144.96027,27.441398 189.95309,82.324138 45.29077,54.52867 67.93613,131.18749 67.93613,229.97637 0,97.01854 -22.19841,173.32325 -66.5953,228.91416 -44.39687,55.59091 -105.47983,83.38636 -183.24886,83.38636 -70.91579,0 -127.67824,-28.14951 -170.28734,-84.44861 -42.3111,-56.29909 -63.46663,-131.54154 -63.46663,-225.72742 z m 48.7527,36.42226 90.92126,212.09018 197.29497,-0.23869 -1.75768,-211.06391 z" />
        <path
           style="opacity:0.98999999;fill:url(#radialGradient6190);fill-opacity:1;stroke:#000000;stroke-width:0;stroke-miterlimit:4;stroke-dasharray:none;stroke-opacity:1"
           d="m 670.40191,223.56276 c 0,29.83833 -34.10364,134.86895 -102.88686,66.38018 -31.06912,-30.93612 -19.26439,-66.8654 -132.79093,-71.25589 -75.06957,-2.90322 -143.30514,61.68768 -179.52686,61.68768 l 0,-139.24503 c 144.52947,-50.330768 96.68731,-45.672362 211.34291,-45.672362 114.6556,0 203.86174,68.428772 203.86174,128.105422 z"
           id="path6179"
           inkscape:connector-curvature="0"
           sodipodi:nodetypes="sssccss" />
      </g>
    </g>
  </g>
</svg>
